<?xml version="1.0" encoding="UTF-8" standalone="no"?>
<!DOCTYPE svg PUBLIC "-//W3C//DTD SVG 1.1//EN" "http://www.w3.org/Graphics/SVG/1.1/DTD/svg11.dtd">
<svg width="100%" height="100%" viewBox="0 0 60 60" version="1.1" xmlns="http://www.w3.org/2000/svg" xmlns:xlink="http://www.w3.org/1999/xlink" xml:space="preserve" style="fill-rule:evenodd;clip-rule:evenodd;stroke-linejoin:round;stroke-miterlimit:1.41421;">
    <rect id="gears" x="0" y="0" width="60" height="60" style="fill:none;"/>
    <clipPath id="_clip1">
        <rect id="gears1" x="0" y="0" width="60" height="60"/>
    </clipPath>
    <g clip-path="url(#_clip1)">
        <g transform="matrix(-1.03571,0,0,-1.03571,60.9474,60.7657)">
            <path d="M34.69,2.396C31.586,1.868 28.414,1.868 25.31,2.396C24.89,5.368 24.478,8.342 24.072,11.316C22.306,11.877 20.628,12.685 19.088,13.716C16.51,12.179 13.928,10.647 11.342,9.122C8.994,11.22 7.017,13.7 5.494,16.456C7.556,18.637 9.624,20.814 11.697,22.985C11.033,24.716 10.619,26.532 10.466,28.378C7.656,29.436 4.849,30.499 2.044,31.57C2.221,34.714 2.926,37.806 4.131,40.715C7.123,40.463 10.114,40.203 13.104,39.937C14.043,41.534 15.204,42.99 16.553,44.262C15.627,47.117 14.709,49.975 13.797,52.836C16.365,54.658 19.223,56.034 22.249,56.906C23.916,54.41 25.578,51.909 27.234,49.405C29.069,49.667 30.931,49.667 32.766,49.405C34.422,51.909 36.084,54.41 37.751,56.906C40.777,56.034 43.635,54.658 46.203,52.836C45.291,49.975 44.373,47.117 43.447,44.262C44.796,42.99 45.957,41.534 46.896,39.937C49.886,40.203 52.877,40.463 55.869,40.715C57.074,37.806 57.779,34.714 57.956,31.57C55.151,30.499 52.344,29.436 49.534,28.378C49.381,26.532 48.967,24.716 48.303,22.985C50.376,20.814 52.444,18.637 54.506,16.456C52.983,13.7 51.006,11.22 48.658,9.122C46.072,10.647 43.49,12.179 40.912,13.716C39.372,12.685 37.694,11.877 35.928,11.316C35.522,8.342 35.11,5.368 34.69,2.396ZM30,22.545C34.114,22.545 37.455,25.886 37.455,30C37.455,34.114 34.114,37.455 30,37.455C25.886,37.455 22.545,34.114 22.545,30C22.545,25.886 25.886,22.545 30,22.545Z"/>
        </g>
    </g>
</svg>
