<?xml version="1.0" standalone="no"?>
<!DOCTYPE svg PUBLIC "-//W3C//DTD SVG 20010904//EN"
 "http://www.w3.org/TR/2001/REC-SVG-20010904/DTD/svg10.dtd">
<svg version="1.0" xmlns="http://www.w3.org/2000/svg"
 width="512.000000pt" height="512.000000pt" viewBox="0 0 512.000000 512.000000"
 preserveAspectRatio="xMidYMid meet">
<metadata>
Created by potrace 1.14, written by Peter Selinger 2001-2017
</metadata>
<g transform="translate(0.000000,512.000000) scale(0.100000,-0.100000)"
fill="#000000" stroke="none">
<path d="M1970 4120 c-338 -4 -627 -10 -642 -14 -16 -5 -28 -12 -28 -17 0 -5
-7 -9 -15 -9 -25 0 -80 -41 -104 -77 -15 -23 -25 -61 -31 -116 -6 -47 -10
-609 -10 -1314 0 -1121 1 -1236 16 -1275 21 -53 62 -98 115 -126 40 -22 47
-22 582 -22 298 -1 561 -5 585 -9 42 -8 49 -3 43 32 -1 4 -6 97 -11 206 -13
260 -19 288 -65 328 -20 17 -62 41 -93 53 -31 12 -66 26 -77 30 -11 5 -40 16
-65 24 -135 44 -238 95 -291 143 -101 91 -104 196 -7 292 31 32 182 111 211
111 7 0 17 4 22 9 6 5 51 23 100 41 113 39 195 78 217 103 30 33 38 83 48 292
5 110 15 223 21 250 29 128 96 195 192 195 106 0 168 -46 325 -245 175 -222
205 -245 302 -228 l44 8 -3 584 c-2 466 -6 590 -17 616 -21 51 -64 96 -114
119 -42 20 -62 21 -340 22 -162 0 -572 -3 -910 -6z m-128 -313 c-12 -13 -22
-30 -22 -39 0 -21 -37 -26 -247 -34 l-173 -7 0 51 0 52 232 0 231 0 -21 -23z
m-132 -407 l0 -40 -139 0 c-77 0 -146 -3 -155 -6 -13 -5 -16 2 -16 40 l0 46
155 0 155 0 0 -40z"/>
<path d="M3522 2143 c-1 -7 -15 -28 -32 -46 -16 -19 -30 -38 -30 -42 0 -16
-35 -81 -52 -96 -10 -9 -18 -21 -18 -28 0 -6 -4 -11 -10 -11 -5 0 -10 10 -10
23 -1 21 -1 21 -15 3 -8 -10 -39 -45 -70 -76 -30 -32 -55 -64 -55 -71 0 -7 -3
-10 -6 -6 -8 7 -28 -12 -37 -36 -4 -9 -15 -21 -24 -24 -41 -16 -103 -111 -103
-159 0 -29 10 -30 38 -4 12 11 28 20 37 20 8 0 15 5 15 10 0 6 45 10 114 10
66 0 117 -4 121 -10 3 -5 19 -10 35 -10 16 0 32 -4 35 -10 3 -5 19 -10 36 -10
16 0 29 -4 29 -10 0 -5 13 -10 29 -10 17 0 33 -4 36 -10 3 -5 19 -10 34 -10
15 0 31 -4 37 -10 5 -5 46 -12 92 -16 l82 -7 0 26 c0 15 -9 42 -19 60 -37 66
-134 212 -142 215 -5 2 -9 8 -9 13 0 6 -5 15 -10 22 -21 25 -60 88 -60 97 0 6
-4 10 -10 10 -5 0 -10 9 -10 20 0 11 -4 20 -10 20 -5 0 -10 10 -10 23 0 13 -4
27 -9 33 -6 5 -12 34 -14 64 -2 30 -4 50 -5 43z"/>
<path d="M3140 1362 c-37 -38 -86 -94 -108 -125 -23 -30 -46 -58 -52 -62 -17
-10 -12 -48 5 -41 9 3 59 9 113 12 102 8 142 22 194 71 37 35 68 105 68 153 0
34 -4 42 -26 50 -14 6 -48 10 -76 10 -49 0 -52 -2 -118 -68z"/>
</g>
</svg>
