<?xml version="1.0" encoding="UTF-8" standalone="no"?>
<svg
   xmlns:dc="http://purl.org/dc/elements/1.1/"
   xmlns:cc="http://creativecommons.org/ns#"
   xmlns:rdf="http://www.w3.org/1999/02/22-rdf-syntax-ns#"
   xmlns:svg="http://www.w3.org/2000/svg"
   xmlns="http://www.w3.org/2000/svg"
   xmlns:sodipodi="http://sodipodi.sourceforge.net/DTD/sodipodi-0.dtd"
   xmlns:inkscape="http://www.inkscape.org/namespaces/inkscape"
   fill="#FFFFFF"
   height="24"
   viewBox="0 0 24 24"
   width="24"
   id="svg3039"
   version="1.1"
   inkscape:version="0.48.4 r9939"
   sodipodi:docname="ic_flip_to_back_white_24px.svg"
   inkscape:export-filename="/home/tim/Downloads/ic_flip_to_back_white_24px_dropdown.png"
   inkscape:export-xdpi="90"
   inkscape:export-ydpi="90">
  <metadata
     id="metadata3049">
    <rdf:RDF>
      <cc:Work
         rdf:about="">
        <dc:format>image/svg+xml</dc:format>
        <dc:type
           rdf:resource="http://purl.org/dc/dcmitype/StillImage" />
        <dc:title></dc:title>
      </cc:Work>
    </rdf:RDF>
  </metadata>
  <defs
     id="defs3047" />
  <sodipodi:namedview
     pagecolor="#ffffff"
     bordercolor="#666666"
     borderopacity="1"
     objecttolerance="10"
     gridtolerance="10"
     guidetolerance="10"
     inkscape:pageopacity="0"
     inkscape:pageshadow="2"
     inkscape:window-width="1301"
     inkscape:window-height="744"
     id="namedview3045"
     showgrid="false"
     inkscape:zoom="19.666667"
     inkscape:cx="12"
     inkscape:cy="12"
     inkscape:window-x="65"
     inkscape:window-y="24"
     inkscape:window-maximized="1"
     inkscape:current-layer="svg3039" />
  <path
     d="M0 0h24v24H0z"
     fill="none"
     id="path3041" />
  <path
     d="M9 7H7v2h2V7zm0 4H7v2h2v-2zm0-8c-1.11 0-2 .9-2 2h2V3zm4 12h-2v2h2v-2zm6-12v2h2c0-1.1-.9-2-2-2zm-6 0h-2v2h2V3zM9 17v-2H7c0 1.1.89 2 2 2zm10-4h2v-2h-2v2zm0-4h2V7h-2v2zm0 8c1.1 0 2-.9 2-2h-2v2zM5 7H3v12c0 1.1.89 2 2 2h12v-2H5V7zm10-2h2V3h-2v2zm0 12h2v-2h-2v2z"
     id="path3043" />
  <path
     d="m 16.650906,23.721974 7.071068,0 0,-7.071068 z"
     id="path4"
     inkscape:connector-curvature="0" />
</svg>
