<?xml version="1.0" encoding="UTF-8" standalone="no"?>
<!-- Generator: Adobe Illustrator 17.1.0, SVG Export Plug-In . SVG Version: 6.00 Build 0)  -->

<svg
   xmlns:dc="http://purl.org/dc/elements/1.1/"
   xmlns:cc="http://creativecommons.org/ns#"
   xmlns:rdf="http://www.w3.org/1999/02/22-rdf-syntax-ns#"
   xmlns:svg="http://www.w3.org/2000/svg"
   xmlns="http://www.w3.org/2000/svg"
   xmlns:sodipodi="http://sodipodi.sourceforge.net/DTD/sodipodi-0.dtd"
   xmlns:inkscape="http://www.inkscape.org/namespaces/inkscape"
   version="1.1"
   id="Layer_1"
   x="0px"
   y="0px"
   viewBox="0 0 576.00001 600.70272"
   enable-background="new 0 0 192 192"
   xml:space="preserve"
   inkscape:version="0.91 r13725"
   sodipodi:docname="logo_star_144dp.svg"
   width="576"
   height="600.7027"><metadata
     id="metadata97"><rdf:RDF><cc:Work
         rdf:about=""><dc:format>image/svg+xml</dc:format><dc:type
           rdf:resource="http://purl.org/dc/dcmitype/StillImage" /><dc:title></dc:title></cc:Work></rdf:RDF></metadata><defs
     id="defs95" /><sodipodi:namedview
     pagecolor="#ffffff"
     bordercolor="#666666"
     borderopacity="1"
     objecttolerance="10"
     gridtolerance="10"
     guidetolerance="10"
     inkscape:pageopacity="0"
     inkscape:pageshadow="2"
     inkscape:window-width="1855"
     inkscape:window-height="1056"
     id="namedview93"
     showgrid="false"
     fit-margin-top="0"
     fit-margin-left="0"
     fit-margin-right="0"
     fit-margin-bottom="0"
     inkscape:zoom="1.2291667"
     inkscape:cx="37.799997"
     inkscape:cy="315.65836"
     inkscape:window-x="65"
     inkscape:window-y="24"
     inkscape:window-maximized="1"
     inkscape:current-layer="Layer_1" /><g
     id="bottom_x5F_half"
     display="none"
     style="display:none"
     transform="translate(-58.200003,416.84098)"><path
       display="inline"
       enable-background="new    "
       d="m 142,91.5 0,69.5 c 0,6.6 -5.4,12 -12,12 l -95.7,0 c -6.6,0 -12,-5.4 -12,-12 l 0,-69.5 119.7,0 z"
       id="path16"
       inkscape:connector-curvature="0"
       style="display:inline;opacity:0.2" /></g><g
     id="g62"
     inkscape:export-filename="/home/tim/development/ankidroid-timrae/AnkiDroid/src/main/res/drawable-xxxhdpi/product_logo_144dp.png"
     inkscape:export-xdpi="416.94742"
     inkscape:export-ydpi="416.94742"
     transform="matrix(4.8341729,0,0,4.8341729,-281.34886,-288.1167)"><g
       id="g64"><path
         style="fill:#ffffff"
         inkscape:connector-curvature="0"
         id="path66"
         d="m 106.2,59.6 c -1,0 -2.1,0.1 -3.1,0.4 -4.2,1.4 -6.3,5.4 -7.3,9.1 -1,3.7 -1.2,7.8 -1.3,11.9 -0.1,4.1 -0.2,8.3 -0.5,11.7 -0.3,3.4 -1.2,5.9 -1.7,6.6 -0.5,0.7 -2.7,2.3 -5.8,3.6 -3.1,1.4 -7,2.7 -10.9,4.1 -3.9,1.4 -7.7,2.9 -11,4.9 -3.2,2 -6.4,5.2 -6.4,9.7 0,4.5 3.1,7.6 6.4,9.7 3.3,2.1 7,3.5 10.9,5 3.9,1.4 7.8,2.7 10.9,4.1 3.1,1.4 5.3,2.9 5.8,3.6 0.5,0.7 1.3,3.3 1.6,6.7 0.3,3.4 0.4,7.5 0.5,11.7 0.1,4.1 0.4,8.2 1.3,11.9 0.9,3.7 3,7.7 7.2,9.1 4.2,1.4 8.2,-0.6 11.2,-3.1 3,-2.5 5.6,-5.6 8.1,-8.8 2.5,-3.2 5,-6.6 7.3,-9.1 2.3,-2.5 4.4,-4.2 5.3,-4.4 0.8,-0.3 3.5,-0.2 6.8,0.5 3.3,0.7 7.3,2 11.2,3.1 4,1.1 7.9,2.2 11.7,2.4 3.8,0.2 8.2,-0.5 10.9,-4.1 2.6,-3.6 2,-8 0.6,-11.6 -1.4,-3.6 -3.6,-7 -5.9,-10.4 -2.3,-3.4 -4.7,-6.8 -6.4,-9.7 -1.7,-2.9 -2.6,-5.5 -2.6,-6.4 0,-1 1.1,-4 3.3,-7.4 2.1,-3.4 5,-7.3 7.5,-11.1 2,-3 3.7,-6.1 4.8,-9.2 1,-3.2 1.3,-7.1 -1,-10.3 -2.6,-3.6 -7,-4.3 -10.9,-4.1 -3.8,0.2 -7.8,1.3 -11.8,2.4 -4,1.1 -7.9,2.4 -11.2,3.1 -3.3,0.7 -6,0.7 -6.8,0.5 -0.8,-0.2 -3,-1.9 -5.3,-4.4 -2.3,-2.6 -4.7,-5.9 -7.2,-9.2 -2.5,-3.3 -5.1,-6.4 -8.1,-8.9 -2.3,-1.9 -5.1,-3.5 -8.1,-3.6 l 0,0 z" /><g
         id="inner_11_"><linearGradient
           gradientTransform="matrix(1,0,0,-1,0,192)"
           y2="40.880001"
           x2="170.66859"
           y1="93.285301"
           x1="79.900101"
           gradientUnits="userSpaceOnUse"
           id="SVGID_1_"><stop
             id="stop70"
             style="stop-color:#29B6F6"
             offset="0" /><stop
             id="stop72"
             style="stop-color:#0288D1"
             offset="1" /></linearGradient><path
           inkscape:connector-curvature="0"
           style="fill:url(#SVGID_1_)"
           id="path74"
           d="m 105.7,68.2 c 0.4,-0.1 1.2,-0.1 3.1,1.5 1.9,1.6 4.3,4.4 6.8,7.5 2.4,3.1 4.9,6.6 7.6,9.5 2.6,3 5.2,5.7 9,6.9 4,1.3 8,0.7 11.4,-0.3 3.9,-0.9 7.9,-2.1 11.7,-3.2 3.8,-1.1 7.4,-2 9.9,-2.1 2.5,-0.2 3.2,0.3 3.4,0.6 0.2,0.3 0.4,0.8 -0.2,2.6 -0.6,1.8 -2,4.5 -3.8,7.2 -2.3,3.5 -5.1,7.4 -7.5,11.2 -2.4,3.8 -4.6,7.5 -4.6,12 0,4 1.8,7.3 3.8,10.7 2,3.4 4.5,6.9 6.7,10.2 2.2,3.3 4.1,6.4 5.1,8.8 0.9,2.3 0.7,3.1 0.5,3.4 -0.2,0.3 -0.9,0.7 -3.4,0.6 -2.5,-0.2 -6.1,-1 -9.9,-2.1 -3.8,-1.1 -7.9,-2.4 -11.7,-3.3 -3.9,-0.9 -7.6,-1.5 -11.4,-0.3 -3.8,1.2 -6.4,3.9 -9,6.9 -2.6,3 -5.2,6.4 -7.6,9.5 -2.4,3.1 -4.9,5.9 -6.8,7.5 -1.9,1.6 -2.7,1.7 -3.1,1.5 -0.4,-0.1 -1,-0.6 -1.6,-3.1 -0.6,-2.5 -0.9,-6.1 -1,-10.1 -0.1,-4 -0.2,-8.2 -0.5,-12.2 -0.4,-4 -0.9,-7.7 -3.2,-10.9 -2.3,-3.2 -5.7,-4.9 -9.3,-6.5 -3.6,-1.6 -7.7,-2.9 -11.4,-4.3 -3.7,-1.4 -7.1,-2.8 -9.3,-4.1 -2.1,-1.4 -2.4,-2.1 -2.4,-2.5 0,-0.4 0.3,-1.1 2.4,-2.4 2.2,-1.4 5.7,-2.9 9.3,-4.1 3.7,-1.4 7.8,-2.7 11.4,-4.3 3.6,-1.6 7,-3.2 9.3,-6.4 2.3,-3.2 2.9,-7 3.3,-10.9 0.4,-3.9 0.4,-8.2 0.6,-12.2 0.1,-4 0.4,-7.6 1.1,-10.1 0.3,-2.1 0.9,-2.6 1.3,-2.7 l 0,0 z" /></g></g></g></svg>