<?xml version="1.0" encoding="iso-8859-1"?><!-- Adapted from https://www.svgrepo.com/svg/4879/push-pin License: CC0 --><svg fill="currentColor" height="11px" width="11px" version="1.1" id="sticky-pin-solid" xmlns="http://www.w3.org/2000/svg" xmlns:xlink="http://www.w3.org/1999/xlink" viewBox="0 0 490.125 490.125" xml:space="preserve"><path d="M300.625,5.025c-6.7-6.7-17.6-6.7-24.3,0l-72.6,72.6c-6.7,6.7-6.7,17.6,0,24.3l16.3,16.3l-40.3,40.3l-63.5-7c-3-0.3-6-0.5-8.9-0.5c-21.7,0-42.2,8.5-57.5,23.8l-20.8,20.8c-6.7,6.7-6.7,17.6,0,24.3l108.5,108.5l-132.4,132.4c-6.7,6.7-6.7,17.6,0,24.3c3.3,3.3,7.7,5,12.1,5s8.8-1.7,12.1-5l132.5-132.5l108.5,108.5c3.3,3.3,7.7,5,12.1,5s8.8-1.7,12.1-5l20.8-20.8c17.6-17.6,26.1-41.8,23.3-66.4l-7-63.5l40.3-40.3l16.2,16.2c6.7,6.7,17.6,6.7,24.3,0l72.6-72.6c3.2-3.2,5-7.6,5-12.1s-1.8-8.9-5-12.1L300.625,5.025z"/></svg>
