<svg xmlns="http://www.w3.org/2000/svg" viewBox="0 0 576.00001 600.70272" xml:space="preserve" width="576" height="600.7027"><path style="fill:#fff" d="M106.2 59.6c-1 0-2.1.1-3.1.4-4.2 1.4-6.3 5.4-7.3 9.1-1 3.7-1.2 7.8-1.3 11.9-.1 4.1-.2 8.3-.5 11.7-.3 3.4-1.2 5.9-1.7 6.6-.5.7-2.7 2.3-5.8 3.6-3.1 1.4-7 2.7-10.9 4.1-3.9 1.4-7.7 2.9-11 4.9-3.2 2-6.4 5.2-6.4 9.7 0 4.5 3.1 7.6 6.4 9.7 3.3 2.1 7 3.5 10.9 5 3.9 1.4 7.8 2.7 10.9 4.1 3.1 1.4 5.3 2.9 5.8 3.6.5.7 1.3 3.3 1.6 6.7.3 3.4.4 7.5.5 11.7.1 4.1.4 8.2 1.3 11.9.9 3.7 3 7.7 7.2 9.1 4.2 1.4 8.2-.6 11.2-3.1s5.6-5.6 8.1-8.8c2.5-3.2 5-6.6 7.3-9.1s4.4-4.2 5.3-4.4c.8-.3 3.5-.2 6.8.5s7.3 2 11.2 3.1c4 1.1 7.9 2.2 11.7 2.4 3.8.2 8.2-.5 10.9-4.1 2.6-3.6 2-8 .6-11.6-1.4-3.6-3.6-7-5.9-10.4-2.3-3.4-4.7-6.8-6.4-9.7-1.7-2.9-2.6-5.5-2.6-6.4 0-1 1.1-4 3.3-7.4 2.1-3.4 5-7.3 7.5-11.1 2-3 3.7-6.1 4.8-9.2 1-3.2 1.3-7.1-1-10.3-2.6-3.6-7-4.3-10.9-4.1-3.8.2-7.8 1.3-11.8 2.4-4 1.1-7.9 2.4-11.2 3.1-3.3.7-6 .7-6.8.5-.8-.2-3-1.9-5.3-4.4-2.3-2.6-4.7-5.9-7.2-9.2-2.5-3.3-5.1-6.4-8.1-8.9-2.3-1.9-5.1-3.5-8.1-3.6z" transform="matrix(4.83417 0 0 4.83417 -281.34886 -288.1167)"/><g transform="matrix(4.83417 0 0 4.83417 -281.34886 -288.1167)"><linearGradient gradientTransform="matrix(1 0 0 -1 0 192)" y2="40.880001" x2="170.66859" y1="93.285301" x1="79.900101" gradientUnits="userSpaceOnUse" id="a"><stop style="stop-color:#29b6f6" offset="0"/><stop style="stop-color:#0288d1" offset="1"/></linearGradient><path style="fill:url(#a)" d="M105.7 68.2c.4-.1 1.2-.1 3.1 1.5 1.9 1.6 4.3 4.4 6.8 7.5 2.4 3.1 4.9 6.6 7.6 9.5 2.6 3 5.2 5.7 9 6.9 4 1.3 8 .7 11.4-.3 3.9-.9 7.9-2.1 11.7-3.2 3.8-1.1 7.4-2 9.9-2.1 2.5-.2 3.2.3 3.4.6.2.3.4.8-.2 2.6-.6 1.8-2 4.5-3.8 7.2-2.3 3.5-5.1 7.4-7.5 11.2-2.4 3.8-4.6 7.5-4.6 12 0 4 1.8 7.3 3.8 10.7 2 3.4 4.5 6.9 6.7 10.2 2.2 3.3 4.1 6.4 5.1 8.8.9 2.3.7 3.1.5 3.4-.2.3-.9.7-3.4.6-2.5-.2-6.1-1-9.9-2.1-3.8-1.1-7.9-2.4-11.7-3.3-3.9-.9-7.6-1.5-11.4-.3-3.8 1.2-6.4 3.9-9 6.9-2.6 3-5.2 6.4-7.6 9.5-2.4 3.1-4.9 5.9-6.8 7.5-1.9 1.6-2.7 1.7-3.1 1.5-.4-.1-1-.6-1.6-3.1-.6-2.5-.9-6.1-1-10.1-.1-4-.2-8.2-.5-12.2-.4-4-.9-7.7-3.2-10.9-2.3-3.2-5.7-4.9-9.3-6.5-3.6-1.6-7.7-2.9-11.4-4.3s-7.1-2.8-9.3-4.1c-2.1-1.4-2.4-2.1-2.4-2.5 0-.4.3-1.1 2.4-2.4 2.2-1.4 5.7-2.9 9.3-4.1 3.7-1.4 7.8-2.7 11.4-4.3 3.6-1.6 7-3.2 9.3-6.4 2.3-3.2 2.9-7 3.3-10.9.4-3.9.4-8.2.6-12.2.1-4 .4-7.6 1.1-10.1.3-2.1.9-2.6 1.3-2.7z"/></g></svg>