<?xml version="1.0" encoding="UTF-8" standalone="no"?><!DOCTYPE svg PUBLIC "-//W3C//DTD SVG 1.1//EN" "http://www.w3.org/Graphics/SVG/1.1/DTD/svg11.dtd"><svg width="100%" height="100%" viewBox="0 0 32 32" version="1.1" xmlns="http://www.w3.org/2000/svg" xmlns:xlink="http://www.w3.org/1999/xlink" xml:space="preserve" xmlns:serif="http://www.serif.com/" style="fill-rule:evenodd;clip-rule:evenodd;stroke-linejoin:round;stroke-miterlimit:1.41421;"><g id="Layer-1" serif:id="Layer 1"><g><path d="M18.004,13.502l10.741,0l0,-10.83l-10.741,10.83Z" style="fill:#808080;fill-rule:nonzero;stroke:#808080;stroke-width:1px;"/><path d="M24.912,19.779c-1.384,3.394 -4.584,5.486 -8.33,5.486c-5.018,0 -9.093,-4.131 -9.093,-9.149c0,-5.018 4.121,-9.137 9.139,-9.137c2.516,0 4.81,1.026 6.464,2.687l2.604,-3.041c-2.355,-2.296 -5.53,-3.716 -9.079,-3.716c-7.216,0 -13.048,5.85 -13.048,13.066c0,7.216 5.469,13.116 12.685,13.116c5.929,0 10.671,-4.221 12.177,-9.312l-3.519,0Z" style="fill:#808080;fill-rule:nonzero;stroke:#808080;stroke-width:1px;stroke-linejoin:miter;stroke-miterlimit:10;"/></g></g></svg>