<svg width="236" height="165" viewBox="0 0 236 165" fill="none" xmlns="http://www.w3.org/2000/svg">
<path d="M206 154.5L206 113.5L183.471 134.335L190 163L206 154.5Z" fill="url(#paint0_linear)"/>
<path d="M210 148.5L206 113.5L183.471 134.335L190 163L210 148.5Z" fill="url(#paint1_linear)"/>
<path d="M207.5 147L206 113.5L183.471 134.335L190 163L207.5 147Z" fill="url(#paint2_linear)"/>
<path d="M206 145L206 113.5L183.471 134.335L190 163L206 145Z" fill="url(#paint3_linear)"/>
<path d="M38 32H198L190 163H46L38 32Z" fill="url(#paint4_linear)"/>
<path d="M46 165H190V163H46V165Z" fill="url(#paint5_linear)"/>
<mask id="mask0" mask-type="alpha" maskUnits="userSpaceOnUse" x="38" y="32" width="160" height="131">
<path d="M38 32H198L190 163H46L38 32Z" fill="white"/>
</mask>
<g mask="url(#mask0)">
<path d="M189.449 163.546C184.593 168.204 165.27 153.955 158.603 154.869C151.937 155.784 137.163 174.709 131.233 171.53C125.302 168.352 132.883 145.571 129.953 139.513C127.023 133.455 104.458 125.253 105.649 118.63C106.84 112.007 130.848 112.177 135.704 107.519C140.56 102.861 141.388 78.8659 148.054 77.9516C154.721 77.0373 161.978 99.9234 167.909 103.102C173.84 106.281 196.916 99.6535 199.846 105.711C202.776 111.769 183.252 125.743 182.062 132.366C180.871 138.989 194.306 158.888 189.449 163.546Z" fill="#17A1E5"/>
<path d="M189.449 163.546C184.593 168.204 165.27 153.955 158.603 154.869C151.937 155.784 137.163 174.709 131.233 171.53C125.302 168.352 132.883 145.571 129.953 139.513C127.023 133.455 104.458 125.253 105.649 118.63C106.84 112.007 130.848 112.177 135.704 107.519C140.56 102.861 141.388 78.8659 148.054 77.9516C154.721 77.0373 161.978 99.9234 167.909 103.102C173.84 106.281 196.916 99.6535 199.846 105.711C202.776 111.769 183.252 125.743 182.062 132.366C180.871 138.989 194.306 158.888 189.449 163.546Z" fill="url(#paint6_linear)"/>
<path d="M189.449 163.546C184.593 168.204 165.27 153.955 158.603 154.869C151.937 155.784 137.163 174.709 131.233 171.53C125.302 168.352 132.883 145.571 129.953 139.513C127.023 133.455 104.458 125.253 105.649 118.63C106.84 112.007 130.848 112.177 135.704 107.519C140.56 102.861 141.388 78.8659 148.054 77.9516C154.721 77.0373 161.978 99.9234 167.909 103.102C173.84 106.281 196.916 99.6535 199.846 105.711C202.776 111.769 183.252 125.743 182.062 132.366C180.871 138.989 194.306 158.888 189.449 163.546Z" stroke="url(#paint7_linear)" stroke-width="8.49956"/>
</g>
<path d="M38 32H198L190 163H46L38 32Z" fill="url(#paint8_linear)"/>
<path d="M62 0H174L198 32H38L62 0Z" fill="url(#paint9_linear)"/>
<path d="M62 0L63 32H38L62 0Z" fill="url(#paint10_linear)"/>
<path d="M174 0L173 32H198L174 0Z" fill="url(#paint11_linear)"/>
<path d="M62 0L27 19L0 51L38 32L62 0Z" fill="url(#paint12_linear)"/>
<path d="M174 0L209 19L236 51L198 32L174 0Z" fill="url(#paint13_linear)"/>
<mask id="mask1" mask-type="alpha" maskUnits="userSpaceOnUse" x="38" y="0" width="160" height="32">
<path d="M62 0H174L198 32H38L62 0Z" fill="white"/>
</mask>
<g mask="url(#mask1)">
<path d="M114.228 44.6964C113.691 44.2503 113.185 43.7653 112.712 43.251C111.752 42.2082 110.919 41.0446 110.235 39.8011C109.571 38.5926 109.03 37.2924 108.747 35.9373C108.466 34.5946 108.491 33.198 108.674 31.843C109.03 29.1959 109.992 26.5645 111.536 24.3802C111.699 24.2505 111.781 24.0469 111.761 23.8439C111.735 23.1942 111.06 23.2628 110.603 23.2429C109.827 23.2092 109.054 23.1115 108.292 22.9612C106.819 22.6702 105.381 22.1845 104.031 21.5272C102.798 20.9278 101.611 20.1803 100.614 19.232C99.6711 18.336 98.9243 17.2411 98.3128 16.0964C97.4936 14.5633 96.9062 12.8978 96.5727 11.19C96.4027 10.3198 96.3001 9.43508 96.2816 8.54785C96.275 8.2427 96.311 7.92808 96.0461 7.71871C95.8304 7.54912 95.5429 7.55132 95.318 7.70157L95.3181 7.70141C92.9932 9.38529 90.133 10.396 87.2912 10.6832C85.9662 10.8168 84.6212 10.7845 83.3258 10.4584C81.9217 10.1052 80.5828 9.48971 79.3464 8.74078C78.1287 8.00309 76.9944 7.12028 75.9906 6.1079C75.4938 5.60689 75.029 5.07317 74.6073 4.50651C74.481 4.33662 74.372 4.15009 74.1584 4.08095C73.9332 4.00668 73.6709 4.07757 73.5137 4.25609C73.3648 4.42386 73.3221 4.67878 73.2476 4.8829C73.1161 5.24244 72.9701 5.59672 72.8111 5.94493C72.5027 6.62071 72.1462 7.27415 71.7503 7.90204C70.9648 9.14874 70.025 10.3025 68.955 11.3136C68.0467 12.172 67.0345 12.9465 65.9088 13.4941C64.7351 14.0651 63.4498 14.4028 62.1648 14.5983C60.7422 14.815 59.2907 14.8537 57.8592 14.717C57.1205 14.6466 56.386 14.5278 55.6641 14.3555C55.3017 14.269 54.9424 14.1688 54.588 14.054C54.3037 13.9619 54.0089 13.9864 53.8198 14.2491C53.5628 14.4343 53.53 14.7277 53.6191 15.01C53.7287 15.3568 53.8241 15.7082 53.9066 16.0626C54.0671 16.7519 54.179 17.4525 54.2477 18.1571C54.3828 19.5449 54.3547 20.9515 54.1626 22.333C53.9691 23.7243 53.6172 25.1194 52.9991 26.3855C52.4132 27.5855 51.5726 28.6565 50.6449 29.6083C48.8833 31.4153 46.705 32.8769 44.3289 33.7262L44.2781 33.7179C43.9594 33.6659 43.6626 33.8788 43.591 34.1849C43.586 34.2059 43.5821 34.2277 43.5794 34.2496C43.5681 34.2848 43.5601 34.3191 43.5552 34.3524C43.4807 34.8605 44.1208 35.1612 44.4518 35.4353C44.99 35.8807 45.4959 36.3653 45.9697 36.8791C46.9306 37.9211 47.7649 39.0839 48.4497 40.3267C49.1151 41.5344 49.6574 42.8339 49.9421 44.189C50.2254 45.5364 50.1999 46.9387 50.0172 48.299C49.6664 50.9095 48.7256 53.5024 47.2203 55.6684C46.9752 55.8132 46.8648 56.1063 46.9479 56.3735C47.0677 57.0321 47.9067 56.8703 48.3832 56.8999C49.1599 56.9484 49.9325 57.0596 50.6931 57.2226C52.1572 57.5366 53.5833 58.0412 54.9203 58.7169C56.1252 59.3259 57.2854 60.0805 58.2472 61.037C59.1787 61.9638 59.9155 63.0836 60.5167 64.2494C61.6973 66.5397 62.4063 69.137 62.4331 71.7243C62.3608 71.9716 62.4532 72.2384 62.6632 72.389C62.8404 72.5295 63.0839 72.5672 63.2916 72.4727C63.3036 72.4747 63.3905 72.4164 63.398 72.4108L63.398 72.4106C64.9766 71.2651 66.7938 70.4531 68.6681 69.9405C70.5667 69.4209 72.623 69.1558 74.5782 69.4743L74.5803 69.4746L74.5866 69.4757C76.4878 69.7832 78.3043 70.6459 79.9063 71.6935C81.5245 72.7514 82.9935 74.0766 84.1458 75.6372C84.2314 75.8775 84.4604 76.0381 84.7164 76.0376C84.9433 76.0503 85.1633 75.9322 85.2777 75.7346C85.2778 75.7343 85.2778 75.7343 85.2778 75.7341C85.29 75.7129 85.324 75.646 85.3279 75.6217L85.3278 75.6213C86.2413 72.8407 88.0091 70.2919 90.1988 68.3695C91.1599 67.5259 92.2253 66.7988 93.4119 66.3167C94.7183 65.7855 96.1194 65.4929 97.5186 65.3599C98.7823 65.2398 100.06 65.2536 101.32 65.4087C101.964 65.4879 102.605 65.6047 103.234 65.7629C103.563 65.8457 103.888 65.9397 104.21 66.0463C104.446 66.1242 104.711 66.0451 104.869 65.8519C105.139 65.6308 105.107 65.3317 105.015 65.0333C104.908 64.6859 104.815 64.3347 104.735 63.9802C104.579 63.2913 104.472 62.5913 104.407 61.8879C104.28 60.5036 104.314 59.1014 104.512 57.7252C104.713 56.3319 105.073 54.9338 105.704 53.6709C106.304 52.4723 107.154 51.4038 108.09 50.4544C109.862 48.6604 112.046 47.2112 114.425 46.3791C114.746 46.4208 115.051 46.1938 115.103 45.8728C115.11 45.8481 115.115 45.8231 115.118 45.7979C115.206 45.2617 114.567 44.9774 114.228 44.6964ZM94.771 11.2841C94.771 11.2841 95.2151 10.5244 95.3607 11.2938C95.6458 12.8023 96.1111 14.2781 96.7481 15.6723C97.4501 17.208 98.3577 18.6851 99.5463 19.8901C100.72 21.0763 102.161 21.9896 103.66 22.7012C105.074 23.3723 106.564 23.9141 108.108 24.1657C108.713 24.2643 108.211 24.7168 108.211 24.7168L103.099 27.3112C101.683 27.2836 100.284 26.7496 99.0233 26.1439C97.8073 25.56 96.5072 24.8469 95.551 23.8762C94.6297 22.948 93.9549 21.7002 93.3934 20.5289C92.7803 19.2501 92.2412 17.8335 92.189 16.3984C92.1882 16.3737 92.1876 16.3492 92.1869 16.3246L94.771 11.2841ZM97.2377 56.7744C97.2298 57.3371 96.8926 56.9834 96.8926 56.9834L94.2101 54.2623C93.9406 53.3918 94.0404 52.3533 94.152 51.4649C94.2854 50.4026 94.5406 49.3339 94.994 48.3609C95.4403 47.4033 96.1078 46.5544 96.8433 45.804C97.5545 45.0783 98.3818 44.3407 99.3157 43.9198L103.021 44.5235C103.021 44.5235 103.479 44.7139 103.078 45.004C102.275 45.5856 101.531 46.2517 100.842 46.9643C99.9888 47.8467 99.1348 48.8236 98.5726 49.9243C98.0299 50.9924 97.7432 52.2136 97.529 53.3858C97.3248 54.5005 97.2064 55.6396 97.2377 56.7744ZM57.2418 49.9971C57.8956 48.5199 58.0035 46.8281 58.0622 45.2219C58.0875 44.5075 58.0775 43.7833 57.9256 43.0826C57.7607 42.323 57.4921 41.5848 57.1931 40.8694C56.6795 39.6408 56.0462 38.4376 55.2576 37.3582C54.9153 36.8803 55.6228 36.8018 55.6228 36.8018L58.991 37.3505C58.9911 37.3505 58.9911 37.3505 58.9913 37.3507C59.7066 37.8668 60.2251 38.7685 60.6448 39.5269C61.1697 40.4754 61.5971 41.5034 61.8028 42.5725C62.001 43.6023 61.9597 44.6751 61.8058 45.7086C61.6546 46.7233 61.4176 47.8265 60.8991 48.7239L57.6509 50.3719C57.6509 50.3719 56.9201 50.724 57.2418 49.9971ZM61.4342 23.5806C61.5243 23.0277 62.0971 23.4211 62.0971 23.4211L64.4523 25.8103C64.6674 26.7141 64.6399 27.6479 64.5315 28.5676C64.4032 29.6548 64.1474 30.7503 63.6857 31.7462C63.2404 32.7067 62.5722 33.5581 61.8364 34.3105C61.132 35.0306 60.3183 35.7527 59.399 36.181L55.8986 35.6107C55.8986 35.6107 55.1054 35.4756 55.7438 35.0136C56.5228 34.4498 57.2314 33.7875 57.8952 33.0931C58.7246 32.2256 59.5537 31.2687 60.1026 30.1918C60.6557 29.1017 60.9432 27.8512 61.1563 26.6546C61.3366 25.6417 61.4448 24.6104 61.4342 23.5806ZM92.8542 52.4377C92.8674 52.8886 92.5149 52.5432 92.5149 52.5432L90.9791 50.9848C90.5093 49.4896 90.8381 47.6803 91.537 46.3103C92.2173 44.9757 93.4083 43.7433 94.8116 43.1858L96.8827 43.5232C96.8827 43.5232 97.4263 43.7036 96.9399 44.0556C95.7018 44.9513 94.7135 46.2311 94.021 47.5865C93.2701 49.0622 92.9093 50.7775 92.8542 52.4377ZM62.734 47.2514C63.1319 45.7564 63.2787 44.1478 63.0443 42.6277C62.8121 41.1434 62.2054 39.6873 61.4024 38.4041C60.9485 37.7702 61.751 37.8001 61.751 37.8001L63.525 38.0891C64.6885 38.9535 65.4464 40.4519 65.7402 41.8495C66.0716 43.4266 65.8494 45.2805 64.9731 46.6568L63.1265 47.5938C63.1263 47.5938 62.556 47.9196 62.734 47.2514ZM65.798 28.1096C65.922 27.3483 66.3904 27.7763 66.3904 27.7763L67.6867 29.0912C68.1671 30.5604 67.8504 32.3553 67.1837 33.715C66.5141 35.08 65.3166 36.3358 63.8986 36.914L62.047 36.6124C62.047 36.6124 61.2072 36.4375 61.8107 36.0008C63.048 35.1054 64.0231 33.8089 64.696 32.4463C65.3519 31.1179 65.7017 29.6029 65.798 28.1096ZM91.7968 35.0614C91.6325 36.07 91.5302 37.0987 91.6857 38.1075C91.8565 39.2138 92.2109 40.3199 92.8614 41.2286C93.1668 41.6555 92.5577 41.583 92.5577 41.583L90.5335 41.2532C89.7213 40.6243 89.3678 39.6661 89.1962 38.681C89.0097 37.6109 88.9828 36.4664 89.6023 35.5246L91.3322 34.6468C91.3323 34.6468 91.8976 34.4425 91.7968 35.0614ZM89.5832 48.9696C89.5808 49.5729 89.1915 49.1716 89.1915 49.1716L87.6948 47.6532C87.3762 46.5955 87.7042 45.5421 88.1895 44.5915C88.653 43.6819 89.2755 42.8244 90.2557 42.4438L92.3915 42.7917C92.3915 42.7917 92.9417 42.889 92.4725 43.2287C90.673 44.5308 89.5914 46.724 89.5832 48.9696ZM86.3699 46.3092L81.8722 41.7467C81.749 41.4233 81.7045 41.2256 82.1814 41.1282L88.4695 42.1526C87.9162 42.6641 87.4968 43.2916 87.15 43.9587C86.7681 44.6919 86.4572 45.4809 86.3699 46.3092ZM70.804 43.1644C70.8982 42.5864 70.8083 41.9912 70.7187 41.4132C70.6479 40.9569 70.5477 40.5065 70.3992 40.0732C70.0666 39.2064 71.053 39.3155 71.053 39.3155L76.5371 40.2089C76.8077 40.3406 76.8434 40.5801 76.5966 40.7589L71.3062 43.4432C71.3064 43.443 70.6989 43.8093 70.804 43.1644ZM66.8772 45.1169C67.1934 44.1205 67.1616 43.0342 67.0018 42.0017C66.8525 41.044 66.5253 40.1135 66.0524 39.2675C65.5655 38.5878 66.2623 38.5351 66.2623 38.5351L68.1325 38.8397C68.9565 39.4673 69.3164 40.432 69.4904 41.4254C69.6766 42.4872 69.7068 43.6235 69.1002 44.5627L67.414 45.4182C67.414 45.4182 66.7047 45.6607 66.8772 45.1169ZM66.3927 36.7209C67.9552 35.3095 68.9259 33.3332 69.0838 31.2265C69.1796 30.6385 69.7617 31.1962 69.7617 31.1962L70.9766 32.4288C71.3061 33.4931 70.9791 34.5554 70.4915 35.5141C70.0326 36.4161 69.4168 37.2708 68.4489 37.6555L66.6179 37.3572C66.6179 37.3572 65.8286 37.1292 66.3927 36.7209ZM72.2067 34.3983C72.297 33.8442 72.6776 34.1539 72.6776 34.1539L77.0949 38.6348C77.2818 38.8957 77.2461 38.97 76.7932 39.0148L71.2089 38.1051C71.2089 38.1051 70.2394 38.0192 70.7338 37.3925C71.0392 37.0056 71.3031 36.5859 71.5315 36.1454C71.819 35.5923 72.0657 35.0076 72.2067 34.3983ZM87.8751 37.0841C87.7887 37.6143 87.886 38.1604 87.9681 38.6919C88.0901 39.4829 88.3004 40.2567 88.6971 40.954L82.138 39.8855C81.9164 39.7362 81.8067 39.554 82.1485 39.3071L87.2771 36.7048C87.2769 36.7047 88.0061 36.2798 87.8751 37.0841ZM82.7834 32.006L80.0522 37.3331C79.7982 37.5169 79.7324 37.5036 79.5266 37.2164L78.6505 31.4511C78.6505 31.4511 78.5248 30.5546 79.1561 30.9621C79.6195 31.2612 80.2063 31.3019 80.753 31.3911C81.3636 31.4905 81.9819 31.536 82.5951 31.475C83.0861 31.3595 82.7834 32.006 82.7834 32.006ZM78.6401 42.7489C78.8915 42.5672 78.8931 42.5386 79.1645 42.9175L80.1541 49.4321C79.4731 49.0456 78.722 48.8337 77.9525 48.7082L77.9414 48.7064C77.1594 48.5798 76.3674 48.5429 75.5879 48.7022L78.6401 42.7489ZM86.8165 35.5733L81.5705 38.2349C81.1788 38.3185 81.154 38.0806 81.2102 37.7357L83.9281 32.4342C83.9281 32.4342 84.0304 31.915 84.4603 32.5156C84.7962 32.9848 85.1362 33.4543 85.5406 33.8635C85.9552 34.2831 86.4059 34.6705 86.9081 34.9768C87.4399 35.1991 86.8165 35.5733 86.8165 35.5733ZM84.8149 28.0436L83.9349 29.7598C83.0416 30.3522 81.9698 30.3538 80.9492 30.1875C79.9283 30.0212 78.9121 29.6795 78.2533 28.834L77.9861 27.075C77.9861 27.075 77.8674 26.1636 78.528 26.6189C80.2884 27.6604 82.3892 27.9999 84.3889 27.569C84.9939 27.4482 84.8149 28.0436 84.8149 28.0436ZM76.8641 31.2896C77.2885 30.7241 77.4258 31.4704 77.4258 31.4704L78.3292 37.4173C78.2623 37.8282 78.1024 37.6923 77.8318 37.6482L73.5965 33.3522C73.5965 33.3522 73.218 32.9441 73.7759 32.8387C74.3842 32.7238 74.9579 32.46 75.5089 32.1751C75.9906 31.9259 76.4519 31.6388 76.8641 31.2896ZM72.0412 44.4352L77.2189 41.8079C77.5137 41.8559 77.5434 41.9528 77.478 42.3542L74.7871 47.6032C74.7871 47.6032 74.5055 48.1516 74.2304 47.5815C73.98 47.0629 73.5544 46.6464 73.1504 46.2386C72.7489 45.8331 72.3137 45.4579 71.831 45.157C71.2792 44.9387 72.0412 44.4352 72.0412 44.4352ZM73.8682 52.0572L74.7415 50.3535C75.6378 49.7485 76.7172 49.7434 77.7461 49.9104L77.7481 49.9107L77.7565 49.9121C78.7659 50.0762 79.7721 50.4133 80.4296 51.2437L80.7305 53.2252C80.7305 53.2252 80.8297 53.893 80.3244 53.5694C79.4161 53.0035 78.3988 52.6118 77.3431 52.4395L77.337 52.4385C76.2992 52.2711 75.2276 52.3155 74.2026 52.5548C73.4804 52.7163 73.8682 52.0572 73.8682 52.0572ZM81.356 49.2603L80.3943 42.9287C80.4501 42.5866 80.5821 42.5126 80.9817 42.5777L85.4929 47.1537C84.6795 47.2421 83.9079 47.5428 83.1845 47.9173C82.5071 48.2684 81.8738 48.6944 81.356 49.2603ZM90.8425 33.5304L89.0859 34.4216C87.9781 34.3798 87.0814 33.7054 86.3366 32.9362C85.6365 32.2132 85.0518 31.3576 85.0134 30.3168L86.0529 28.289C86.0529 28.289 86.3083 27.8065 86.4695 28.5428C86.9375 30.6798 88.8449 32.1897 90.9009 32.9985C91.4119 33.0818 90.8425 33.5304 90.8425 33.5304ZM86.9455 23.8874L86.0599 25.6146C84.7819 26.4608 83.0444 26.699 81.5568 26.4559C80.0686 26.2142 78.4967 25.4367 77.5534 24.2287L77.2805 22.4325C77.2805 22.4325 77.2724 21.6392 77.8746 22.0489C79.1048 22.886 80.5533 23.4495 82.0079 23.6875C83.5358 23.9342 85.1566 23.7872 86.6633 23.391C87.3132 23.2748 86.9455 23.8874 86.9455 23.8874ZM70.8117 29.6733C72.8497 29.483 74.7559 28.5214 76.1287 26.9955C76.4747 26.4108 76.7694 27.1513 76.7694 27.1513L77.0534 29.02C76.6877 29.9953 75.8608 30.6212 74.9675 31.0843C74.0169 31.5773 72.9529 31.932 71.8887 31.6199L70.5215 30.2329C70.5215 30.2329 69.9229 29.6475 70.8117 29.6733ZM73.2732 27.7118C71.9014 28.4288 70.1204 28.7471 68.6165 28.3005L67.306 26.971C67.306 26.971 66.7845 26.2714 67.4077 26.3729C68.9726 26.6279 70.6183 25.9371 72.0182 25.2083C73.3519 24.5142 74.5393 23.4761 75.5049 22.3074C75.7833 21.8494 76.0632 22.5009 76.0632 22.5009L76.3539 24.4151C75.8221 25.8266 74.5877 27.0247 73.2732 27.7118ZM63.7291 48.6532L65.4173 47.7967C66.9666 47.8309 68.547 48.6834 69.621 49.768C70.6787 50.8357 71.4858 52.3743 71.5598 53.8989L70.719 55.5387C70.719 55.5387 70.219 56.5097 70.0988 55.691C69.8731 54.154 68.7238 52.8432 67.6404 51.7477C66.562 50.6609 65.1798 49.8252 63.7446 49.2622C63.0805 49.0401 63.7291 48.6532 63.7291 48.6532ZM72.1843 51.4585C71.3443 49.4948 69.7681 47.9374 67.813 47.1251C67.2167 46.8562 67.8485 46.5628 67.8485 46.5628L69.5815 45.6837C70.6659 45.715 71.5515 46.3534 72.2896 47.0996C73.0131 47.8294 73.6334 48.698 73.6801 49.7625L72.7765 51.5254C72.7765 51.5254 72.361 52.0397 72.1843 51.4585ZM71.6844 56.3161L72.612 54.5071C73.888 53.6408 75.6475 53.3999 77.1422 53.6422L77.1462 53.6428L77.1469 53.6429C78.6264 53.8831 80.1772 54.6506 81.1274 55.8395L81.4365 57.8735C81.4365 57.8735 81.6043 58.6944 80.9764 58.1406C79.684 57.3021 78.2112 56.6596 76.7009 56.4126L76.6936 56.4114C75.1257 56.1596 73.458 56.3221 71.9179 56.7443C71.2407 56.9031 71.6844 56.3161 71.6844 56.3161ZM82.444 53.2404C82.3026 53.4054 81.9381 53.0929 81.9381 53.0929L81.6349 51.0946C81.9963 50.1084 82.8269 49.4753 83.7271 49.0076C84.6699 48.5177 85.7254 48.1621 86.7831 48.4624L88.2913 49.9922C88.2913 49.9922 88.6179 50.4861 88.0834 50.3991C85.9067 50.5508 83.8672 51.5794 82.444 53.2404ZM85.4245 52.3782C86.7902 51.663 88.5496 51.3478 90.05 51.7764L91.4901 53.2372C91.4901 53.2372 91.9695 53.6843 91.387 53.7063C89.7738 53.767 88.1084 54.1365 86.6817 54.8807C85.3153 55.5938 84.0993 56.6695 83.1219 57.877C82.7013 58.5024 82.6488 57.7688 82.6488 57.7688L82.3358 55.7095C82.8547 54.2834 84.1042 53.0699 85.4245 52.3782ZM97.079 42.3195L95.1309 42.0022C93.9638 41.1115 93.2074 39.598 92.9298 38.176C92.625 36.6144 92.8567 34.7766 93.7381 33.4261L95.5232 32.5204C95.5232 32.5204 96.095 32.5108 95.9285 32.9755C95.4194 34.3969 95.4167 36.0044 95.6437 37.4854C95.8886 39.0604 96.4983 40.6418 97.4289 41.9421C97.7733 42.423 97.079 42.3195 97.079 42.3195ZM94.5575 29.3332C93.6009 28.8586 92.6732 28.2648 91.9189 27.5005C91.195 26.7703 90.63 25.8786 90.1739 24.9597C89.7384 24.0823 89.3034 23.0766 89.2337 22.0857L90.9902 18.659C90.9902 18.659 91.2665 18.1609 91.3663 18.6636C91.7095 19.8321 92.2082 20.9544 92.7942 22.0195C93.3518 23.0338 93.9898 24.0864 94.84 24.8823C95.6797 25.6686 96.6896 26.2912 97.6972 26.8353C98.5777 27.3108 99.4893 27.7605 100.452 28.0385C101.17 28.2456 100.568 28.5955 100.568 28.5955L97.3304 30.2383C96.3757 30.1846 95.4026 29.7524 94.5575 29.3332ZM88.6332 24.4948C89.0554 25.9615 89.9949 27.2842 91.057 28.3603C92.1517 29.4659 93.5543 30.3036 95.0094 30.8713C95.5883 30.9656 95.0026 31.4193 95.0026 31.4193L93.2426 32.3123C91.7026 32.2593 90.1433 31.42 89.0745 30.3379C88.0121 29.2637 87.1963 27.7066 87.1386 26.1713L88.0228 24.4468C88.0228 24.447 88.4354 23.8076 88.6332 24.4948ZM89.6487 18.6147L88.1546 21.5288C87.3522 22.0216 86.3458 22.2478 85.43 22.4061C84.372 22.5891 83.2674 22.6577 82.2043 22.4835C81.1908 22.32 80.212 21.9324 79.3055 21.4585C78.4396 21.0058 77.4999 20.449 76.8641 19.689L76.3523 16.32C76.3523 16.32 76.3641 15.5185 76.8773 15.8758C77.6638 16.4233 78.4813 16.9299 79.3385 17.3554C80.4344 17.8993 81.6202 18.4148 82.8345 18.614C83.9938 18.8012 85.2172 18.7034 86.376 18.5534C87.3176 18.4314 88.2507 18.2223 89.168 17.967C90.0838 17.7125 89.6487 18.6147 89.6487 18.6147ZM75.1319 16.3715L75.6641 19.8756C75.302 20.7475 74.6183 21.5239 73.9686 22.1921C73.218 22.9641 72.363 23.671 71.3994 24.1575C70.4757 24.6261 69.4478 24.8918 68.4282 25.0417C67.4613 25.184 66.3574 25.2973 65.4004 25.0382L63.0662 22.6705C63.0662 22.6705 62.5222 21.9959 63.2897 21.9568C64.2512 21.9078 65.217 21.8534 66.163 21.6872C67.342 21.4801 68.5729 21.1999 69.6494 20.6569C70.6868 20.1304 71.6114 19.3406 72.4552 18.5464C73.2087 17.837 73.917 17.068 74.5292 16.2301C74.9446 15.6786 75.1319 16.3715 75.1319 16.3715ZM58.1492 51.4846L61.325 49.8731C62.2612 49.9053 63.2304 50.3365 64.0596 50.74C65.0231 51.2078 65.9558 51.7958 66.7223 52.5517C67.4534 53.273 68.0251 54.1562 68.4883 55.0704C68.9394 55.9612 69.3777 56.9738 69.4671 57.9808L67.8637 61.108C67.8637 61.108 67.4605 61.7446 67.2233 61.0667C66.8648 60.0417 66.4328 59.0396 65.9097 58.0902C65.3508 57.0767 64.7116 56.0253 63.8609 55.2302C63.0215 54.4453 62.0119 53.8242 61.0051 53.2816C60.0855 52.7859 59.1217 52.3527 58.1226 52.0408C57.4159 51.9258 58.1492 51.4846 58.1492 51.4846ZM68.932 61.685L70.5152 58.597C71.3153 58.0832 72.3503 57.8565 73.2727 57.696C74.3305 57.5123 75.435 57.4425 76.4984 57.6154L76.5018 57.616L76.5048 57.6164C77.5172 57.7798 78.4953 58.1664 79.4016 58.6394C80.2597 59.0872 81.1749 59.6337 81.816 60.3745L82.3724 64.0365C82.3724 64.0365 82.5061 64.731 81.9454 64.3026C81.1478 63.6928 80.2726 63.1879 79.3736 62.7427C78.2772 62.1993 77.091 61.6848 75.8769 61.4863L75.8723 61.4856C74.7128 61.2996 73.4892 61.3983 72.3307 61.5496C71.2387 61.692 70.1478 61.9196 69.1036 62.2796C68.4436 62.5022 68.932 61.685 68.932 61.685ZM83.5711 63.8421L83.0262 60.2528C83.3642 59.3921 84.0425 58.6218 84.6723 57.963C85.4184 57.1829 86.2698 56.4691 87.2284 55.9685C88.1479 55.4882 89.1723 55.2137 90.1919 55.0555C91.1749 54.9031 92.2859 54.7887 93.263 55.0355L95.8164 57.6255C95.8164 57.6255 96.232 58.0859 95.6365 58.125C94.5728 58.195 93.4998 58.2218 92.4527 58.4119C91.2849 58.6237 90.0549 58.9044 88.9958 59.4608C87.9593 60.0052 87.034 60.7983 86.1887 61.6026C85.4342 62.3203 84.7254 63.0988 84.1169 63.9474C83.6299 64.6259 83.5711 63.8421 83.5711 63.8421ZM103.247 43.3243L99.659 42.7398C98.942 42.1893 98.4231 41.2941 97.9977 40.5109C97.4817 39.5603 97.0619 38.5296 96.8701 37.4595C96.686 36.4303 96.7362 35.3599 96.8969 34.3305C97.0531 33.3299 97.2914 32.2356 97.8158 31.3569L101.099 29.6911C101.099 29.6911 101.642 29.4962 101.441 30.1559C100.972 31.6925 100.687 33.309 100.628 34.9049C100.603 35.6165 100.612 36.3376 100.763 37.0358C100.927 37.7957 101.195 38.5341 101.494 39.25C102.028 40.5331 102.718 41.7696 103.53 42.9033C103.955 43.4976 103.247 43.3243 103.247 43.3243ZM75.9848 7.77171C77.0107 8.54204 77.9936 9.3754 79.1054 10.0126C80.5995 10.8688 82.2338 11.551 83.9397 11.8306C85.6459 12.107 87.4122 11.9787 89.101 11.641C90.5757 11.346 91.9834 10.7919 93.3814 10.2328C94.0894 9.94976 93.6675 10.7759 93.6675 10.7759L91.1068 15.7708C89.9348 16.5693 88.4888 16.9568 87.1117 17.2063C85.7869 17.4464 84.3157 17.638 82.9781 17.4014C81.678 17.1717 80.3987 16.5632 79.248 15.934C78.0314 15.2687 76.7986 14.4531 75.9355 13.3457C75.9209 13.3266 75.9061 13.3078 75.8916 13.2887L75.1496 8.40388C75.1496 8.40388 75.0095 7.03935 75.9848 7.77171ZM57.7639 15.9327C59.1484 16.1582 60.5733 16.0395 61.9641 15.8581C63.2263 15.6927 64.4802 15.4012 65.6662 14.9304C66.7694 14.4925 67.7829 13.8717 68.7129 13.1338C70.3741 11.8155 71.8295 10.1882 72.9038 8.3462C73.5685 7.20655 73.9528 8.60951 73.9528 8.60951L74.6916 13.4725C74.2131 14.8027 73.2799 15.9609 72.3168 16.9713C71.3879 17.9461 70.3161 18.9574 69.1054 19.5681C67.9139 20.1729 66.4872 20.4347 65.1755 20.6057C63.7623 20.7901 62.2342 20.8613 60.8576 20.43L57.5692 17.0942C57.5689 17.094 56.5346 15.7324 57.7639 15.9327ZM47.6997 33.4659C48.586 32.9577 49.4055 32.3479 50.1664 31.7087C52.2553 29.9507 53.9709 27.7738 54.787 25.1368C55.4737 22.9178 55.656 20.5246 55.4737 18.1945C55.3387 16.4698 56.4007 17.6429 56.4007 17.6429L59.8869 21.1793C59.9281 21.4635 60.04 21.7417 60.091 22.0268C60.1558 22.3903 60.1926 22.7591 60.2102 23.1281C60.2462 23.8774 60.2055 24.6303 60.1188 25.3752C59.9584 26.7565 59.6794 28.2121 59.0969 29.4835C58.5645 30.6458 57.6107 31.6686 56.7161 32.5602C55.7055 33.5674 54.553 34.5324 53.2321 35.0969C53.1862 35.1166 53.1398 35.1355 53.0933 35.1541L47.884 34.3055C47.8841 34.3053 46.4604 34.1766 47.6997 33.4659ZM49.91 53.2611C50.9161 51.1606 51.3477 48.7773 51.3667 46.4598C51.3891 43.7435 50.4347 41.1777 49.0198 38.8943C48.5055 38.0657 47.915 37.2591 47.2592 36.501C46.29 35.6005 47.6282 35.4992 47.6282 35.4992L52.5919 36.3079C53.0875 36.7274 53.5454 37.1438 53.953 37.6552C54.4082 38.2258 54.806 38.8419 55.164 39.4783C55.8514 40.7 56.4815 42.0506 56.7585 43.4345C56.878 44.0312 56.8713 44.655 56.8461 45.2604C56.8144 46.0137 56.7295 46.7656 56.6008 47.5086C56.3555 48.9258 55.9685 50.4113 55.1754 51.6283L50.6651 53.9167C50.6651 53.9167 49.2869 54.5622 49.91 53.2611ZM63.2478 68.2925C62.9683 66.9352 62.5073 65.6169 61.9252 64.3623C61.2268 62.8564 60.3288 61.4098 59.1593 60.2269C57.9657 59.0232 56.4971 58.1001 54.9699 57.3853C53.8069 56.841 52.6062 56.326 51.3392 56.1195C49.9313 55.8902 51.1554 55.0334 51.1554 55.0334L55.544 52.8066C56.9489 52.8163 58.3464 53.3432 59.6009 53.9366C60.844 54.5243 62.1745 55.2477 63.1505 56.2366C64.0727 57.1638 64.7488 58.411 65.3115 59.5818C65.9282 60.8648 66.4711 62.2872 66.5207 63.7279L64.1659 68.321C64.1658 68.3209 63.5055 69.5443 63.2478 68.2925ZM82.6947 72.2872C81.7081 71.4971 80.7113 70.7136 79.616 70.0867C78.1221 69.232 76.4885 68.5511 74.7836 68.272L74.7736 68.2703C73.0671 67.9958 71.301 68.1257 69.6125 68.4651C68.3107 68.7268 67.0286 69.1141 65.8153 69.6586C64.6294 70.1907 65.2253 68.9148 65.2253 68.9148L67.5557 64.3694C68.7091 63.5624 70.1462 63.1692 71.5109 62.9133C72.8474 62.6628 74.3242 62.4693 75.6771 62.6897L75.6808 62.6903C76.9701 62.8978 78.2461 63.5064 79.3864 64.1215C80.6349 64.795 81.9051 65.6248 82.7862 66.7602L83.5688 71.9128C83.569 71.9127 83.7321 73.1173 82.6947 72.2872ZM101.03 64.1511C99.62 63.9215 98.1702 64.034 96.7533 64.2196C95.4633 64.3894 94.181 64.6908 92.9723 65.1808C91.8716 65.627 90.8612 66.2584 89.9355 67.0025C88.2916 68.3241 86.8196 69.929 85.7895 71.7826C85.1432 72.9456 84.7546 71.6318 84.7546 71.6318L84.0008 66.6704C84.4686 65.3191 85.4193 64.1401 86.3914 63.1182C87.3193 62.1424 88.3904 61.1298 89.6006 60.5182C90.7664 59.924 92.1589 59.6637 93.4422 59.4884C94.8679 59.2934 96.4019 59.216 97.7958 59.6335L101.46 63.3503C101.46 63.3502 102.1 64.3255 101.03 64.1511ZM111.339 46.4551C110.348 47.0613 109.375 47.6928 108.51 48.4179C106.417 50.1755 104.699 52.353 103.88 54.9926C103.179 57.2562 102.985 59.702 103.203 62.0744C103.348 63.6471 102.186 62.3535 102.186 62.3535L98.7681 58.8862C98.7644 58.8702 98.763 58.8539 98.758 58.838L98.758 58.8379C98.3154 57.4644 98.395 55.9204 98.5802 54.5081C98.7566 53.1632 99.0283 51.6968 99.6524 50.4791C100.245 49.3093 101.217 48.2753 102.152 47.3731C103.162 46.3982 104.319 45.456 105.641 44.9502L111.196 45.8552C111.196 45.8549 112.215 45.9197 111.339 46.4551ZM111.676 44.6974L106.045 43.7802C104.919 42.9505 104.1 41.7033 103.436 40.4897C102.781 39.2943 102.168 37.9716 101.918 36.6213C101.806 36.0205 101.819 35.3931 101.848 34.7853C101.884 34.0323 101.972 33.281 102.105 32.5388C102.356 31.1283 102.749 29.6476 103.555 28.4447L108.668 25.8503C108.668 25.8503 109.393 25.5737 109.011 26.3643C107.924 28.6113 107.354 31.1446 107.325 33.6328C107.294 36.3611 108.245 38.9378 109.664 41.2329C110.31 42.2761 111.077 43.2849 111.943 44.2055C112.435 44.687 111.676 44.6974 111.676 44.6974Z" fill="url(#paint14_linear)"/>
</g>
<path d="M21 66H215L198 32H38.0001L21 66Z" fill="url(#paint15_linear)"/>
<defs>
<linearGradient id="paint0_linear" x1="186" y1="146.5" x2="203" y2="135" gradientUnits="userSpaceOnUse">
<stop stop-opacity="0.06"/>
<stop offset="0.140625" stop-opacity="0.04"/>
<stop offset="0.276042" stop-opacity="0.03"/>
<stop offset="0.421875" stop-opacity="0.02"/>
<stop offset="0.5625" stop-opacity="0.01"/>
<stop offset="1" stop-opacity="0"/>
</linearGradient>
<linearGradient id="paint1_linear" x1="185.545" y1="145.81" x2="202.537" y2="134.299" gradientUnits="userSpaceOnUse">
<stop stop-opacity="0.06"/>
<stop offset="0.140625" stop-opacity="0.04"/>
<stop offset="0.276042" stop-opacity="0.03"/>
<stop offset="0.421875" stop-opacity="0.02"/>
<stop offset="0.5625" stop-opacity="0.01"/>
<stop offset="1" stop-opacity="0"/>
</linearGradient>
<linearGradient id="paint2_linear" x1="185.545" y1="145.81" x2="202.537" y2="134.299" gradientUnits="userSpaceOnUse">
<stop stop-opacity="0.06"/>
<stop offset="0.140625" stop-opacity="0.04"/>
<stop offset="0.276042" stop-opacity="0.03"/>
<stop offset="0.421875" stop-opacity="0.02"/>
<stop offset="0.5625" stop-opacity="0.01"/>
<stop offset="1" stop-opacity="0"/>
</linearGradient>
<linearGradient id="paint3_linear" x1="185.545" y1="145.81" x2="202.537" y2="134.299" gradientUnits="userSpaceOnUse">
<stop stop-opacity="0.06"/>
<stop offset="0.140625" stop-opacity="0.04"/>
<stop offset="0.276042" stop-opacity="0.03"/>
<stop offset="0.421875" stop-opacity="0.02"/>
<stop offset="0.5625" stop-opacity="0.01"/>
<stop offset="1" stop-opacity="0"/>
</linearGradient>
<linearGradient id="paint4_linear" x1="118.134" y1="32.1061" x2="118.134" y2="163" gradientUnits="userSpaceOnUse">
<stop stop-color="#B4B4B4"/>
<stop offset="1" stop-color="#757575"/>
</linearGradient>
<linearGradient id="paint5_linear" x1="118" y1="163" x2="118" y2="165" gradientUnits="userSpaceOnUse">
<stop stop-opacity="0.2"/>
<stop offset="0.0746348" stop-opacity="0.13"/>
<stop offset="0.208262" stop-opacity="0.09"/>
<stop offset="0.314243" stop-opacity="0.07"/>
<stop offset="0.484733" stop-opacity="0.05"/>
<stop offset="1" stop-opacity="0"/>
</linearGradient>
<linearGradient id="paint6_linear" x1="153.08" y1="77.9521" x2="152.529" y2="172.006" gradientUnits="userSpaceOnUse">
<stop stop-color="#41B3EC"/>
<stop offset="1" stop-color="#1699DA"/>
</linearGradient>
<linearGradient id="paint7_linear" x1="153.08" y1="77.9521" x2="152.529" y2="172.006" gradientUnits="userSpaceOnUse">
<stop stop-color="white"/>
<stop offset="1" stop-color="#F0F0F0"/>
</linearGradient>
<linearGradient id="paint8_linear" x1="118" y1="63.5" x2="118" y2="93.5" gradientUnits="userSpaceOnUse">
<stop stop-opacity="0.3"/>
<stop offset="0.229167" stop-opacity="0.21"/>
<stop offset="0.6875" stop-opacity="0.06"/>
<stop offset="1" stop-opacity="0"/>
</linearGradient>
<linearGradient id="paint9_linear" x1="118.134" y1="0" x2="118.134" y2="32.1061" gradientUnits="userSpaceOnUse">
<stop stop-color="#7B7B7B"/>
<stop offset="1" stop-color="#606060"/>
</linearGradient>
<linearGradient id="paint10_linear" x1="62.9999" y1="-2.95563e-06" x2="50.6288" y2="32.1061" gradientUnits="userSpaceOnUse">
<stop stop-color="#676767"/>
<stop offset="1" stop-color="#484848"/>
</linearGradient>
<linearGradient id="paint11_linear" x1="174" y1="0.999999" x2="185.639" y2="32.1061" gradientUnits="userSpaceOnUse">
<stop stop-color="#9B9B9B"/>
<stop offset="1" stop-color="#8A8A8A"/>
</linearGradient>
<linearGradient id="paint12_linear" x1="45" y1="35.5" x2="24" y2="17.5" gradientUnits="userSpaceOnUse">
<stop stop-color="#A2A2A2"/>
<stop offset="1" stop-color="#CDCDCD"/>
</linearGradient>
<linearGradient id="paint13_linear" x1="189.5" y1="23" x2="213.5" y2="21.5" gradientUnits="userSpaceOnUse">
<stop stop-color="#808080"/>
<stop offset="1" stop-color="#6B6B6B"/>
</linearGradient>
<linearGradient id="paint14_linear" x1="58.0644" y1="43.2818" x2="112.238" y2="40.1288" gradientUnits="userSpaceOnUse">
<stop stop-color="white" stop-opacity="0.5"/>
<stop offset="1" stop-color="white" stop-opacity="0.4"/>
</linearGradient>
<linearGradient id="paint15_linear" x1="118.134" y1="32.1061" x2="118.134" y2="65.8586" gradientUnits="userSpaceOnUse">
<stop stop-color="#AFAFAF"/>
<stop offset="1" stop-color="#A7A7A7"/>
</linearGradient>
</defs>
</svg>
