<svg xmlns="http://www.w3.org/2000/svg" xmlns:xlink="http://www.w3.org/1999/xlink" width="33" height="33">
    <defs>
        <linearGradient xlink:href="#a" id="e" x1="15.5" x2="4" y1="5.95" y2="31" gradientTransform="matrix(.95454 0 0 .96552 1.705 .552)" gradientUnits="userSpaceOnUse"/>
        <linearGradient id="a">
            <stop offset="0" style="stop-color:#3c3c3c;stop-opacity:1"/>
            <stop offset="1" style="stop-color:#9e9e9e;stop-opacity:1"/>
        </linearGradient>
        <linearGradient xlink:href="#b" id="f" x1="253.747" x2="188" y1="412.83" y2="542.333" gradientUnits="userSpaceOnUse"/>
        <linearGradient id="b">
            <stop offset="0" style="stop-color:#0084dd;stop-opacity:1"/>
            <stop offset="1" style="stop-color:white;stop-opacity:1"/>
        </linearGradient>
        <linearGradient xlink:href="#b" id="g" x1="253.747" x2="188" y1="412.83" y2="542.333" gradientUnits="userSpaceOnUse"/>
        <linearGradient id="c">
            <stop offset="0" style="stop-color:white;stop-opacity:.49411765"/>
            <stop offset="1" style="stop-color:white;stop-opacity:.25098041"/>
        </linearGradient>
        <linearGradient xlink:href="#c" id="h" x1="247" x2="292" y1="441.862" y2="282.362" gradientTransform="matrix(.0924 0 0 .0924 -5.658 -25.642)" gradientUnits="userSpaceOnUse"/>
        <clipPath id="d" clipPathUnits="userSpaceOnUse">
            <rect width="23" height="30" x="5" y="1" rx="4.619" ry="4.619" style="fill:#d533e4;fill-opacity:.54098361;stroke:none"/>
        </clipPath>
    </defs>
    <g clip-path="url(#d)" style="display:inline" transform="translate(0 .5)">
        <rect width="32" height="32" rx="0" ry="0" style="fill:#000;fill-opacity:1;stroke:none;display:inline"/>
        <rect width="21" height="28" x="6" y="2" rx="4" ry="4" style="fill:url(#e);fill-opacity:1;stroke:none"/>
        <path d="M312.507 544.328c-20.284 20.165-45.835-32.08-74.199-28.4-29.323 3.804-41.202 60.289-67.508 46.787-25.446-13.06 16.346-53.505 4.081-79.344-12.679-26.712-70.07-20.555-65.358-49.746 4.558-28.236 55.938-.988 76.722-20.637 21.487-20.313-2.104-72.992 27.115-77.531 28.262-4.39 18.225 52.894 43.334 66.589 25.96 14.158 68.77-24.557 82.116 1.83 12.91 25.522-44.673 33.678-49.939 61.79-5.443 29.064 44.606 57.816 23.636 78.662" style="fill:none;stroke:none" transform="rotate(7.143 230.02 -4.308)scale(.09241)"/>
        <path d="M294.469 523.453c-9.08 8.813-45.575-17.77-58.102-15.978-12.526 1.793-40.1 37.546-51.287 31.633-11.188-5.912 2.816-48.835-2.76-60.195s-48.099-26.534-45.933-39.002c2.166-12.467 47.316-12.412 56.396-21.225s10.373-53.945 22.9-55.738 26.425 41.165 37.613 47.077c11.188 5.913 54.51-6.805 60.086 4.555s-30.983 37.853-33.15 50.32c-2.165 12.468 23.317 49.74 14.237 58.553z" style="fill:url(#f);fill-opacity:1;stroke:#fff;stroke-width:15.98369503;stroke-miterlimit:4;stroke-opacity:1;stroke-dasharray:none" transform="matrix(.07508 .00044 -.00044 .07508 -2.368 -12.924)"/>
        <path d="M294.469 523.453c-9.08 8.813-45.575-17.77-58.102-15.978-12.526 1.793-40.1 37.546-51.287 31.633-11.188-5.912 2.816-48.835-2.76-60.195s-48.099-26.534-45.933-39.002c2.166-12.467 47.316-12.412 56.396-21.225s10.373-53.945 22.9-55.738 26.425 41.165 37.613 47.077c11.188 5.913 54.51-6.805 60.086 4.555s-30.983 37.853-33.15 50.32c-2.165 12.468 23.317 49.74 14.237 58.553z" style="fill:url(#g);fill-opacity:1;stroke:#fff;stroke-width:24.86989784;stroke-miterlimit:4;stroke-opacity:1;stroke-dasharray:none" transform="rotate(-38.853 1.454 -3.187)scale(.04021)"/>
        <path d="M2.66.45h27.63L29.457 20.4c-3.578-3.881-16.633-9.864-25.843-9.864z" style="fill:url(#h);fill-opacity:1;stroke:none;display:inline"/>
    </g>
</svg>
