<?xml version="1.0" encoding="UTF-8" standalone="no"?>
<!DOCTYPE svg PUBLIC "-//W3C//DTD SVG 1.1//EN" "http://www.w3.org/Graphics/SVG/1.1/DTD/svg11.dtd">
<svg width="100%" height="100%" viewBox="0 0 60 60" version="1.1" xmlns="http://www.w3.org/2000/svg" xmlns:xlink="http://www.w3.org/1999/xlink" xml:space="preserve" style="fill-rule:evenodd;clip-rule:evenodd;stroke-linecap:round;stroke-linejoin:round;stroke-miterlimit:1.5;">
    <g transform="matrix(1,0,0,1,-210,0)">
        <g id="deck" transform="matrix(1,0,0,1,-1481,0)">
            <rect x="1691" y="0" width="60" height="60" style="fill:none;"/>
            <g transform="matrix(1.34654,0.00335904,-0.00396102,1.58786,829.019,-3.9058)">
                <path d="M673,7L652,7L652,10.91L668.201,11.013L668.243,32.903L673,32.903L673,7Z" style="fill:none;stroke:black;stroke-width:1.84px;"/>
            </g>
            <g transform="matrix(1.34654,0.00335904,-0.00396102,1.58786,836.096,-10.342)">
                <path d="M673,7L652,7L652,10.91L668.201,11.013L668.243,32.903L673,32.903L673,7Z" style="fill:none;stroke:black;stroke-width:1.84px;"/>
            </g>
            <g transform="matrix(1.34654,0.00335904,-0.00396102,1.58786,822.541,2.52091)">
                <path d="M673,7L652,7L652,32.903L673,32.903L673,7Z" style="fill:none;stroke:black;stroke-width:1.84px;"/>
            </g>
        </g>
    </g>
</svg>
